<?xml version="1.0" encoding="utf-8"?>
<!-- Generator: Adobe Illustrator 23.1.0, SVG Export Plug-In . SVG Version: 6.00 Build 0)  -->
<svg version="1.1" id="Layer_1" xmlns="http://www.w3.org/2000/svg" xmlns:xlink="http://www.w3.org/1999/xlink" x="0px" y="0px"
	 viewBox="0 0 512 512" style="enable-background:new 0 0 512 512;" xml:space="preserve">
<g>
	<path d="M256,0C114.6,0,0,114.6,0,256s114.6,256,256,256s256-114.6,256-256C511.8,114.7,397.3,0.2,256,0z M477.4,345.7l-72.8,12.6
		c8.3-30.6,12.8-62,13.4-93.7h76.7C493.8,292.4,487.9,319.9,477.4,345.7z M17.3,264.5H94c0.6,31.7,5.1,63.1,13.4,93.7l-72.8-12.6
		C24.1,319.9,18.2,292.4,17.3,264.5z M34.6,166.3l72.8-12.6c-8.3,30.6-12.8,62-13.4,93.7H17.3C18.2,219.6,24.1,192.1,34.6,166.3z
		 M264.5,137c30.7,0.4,61.3,3.2,91.5,8.4l30.1,5.2c9.3,31.5,14.2,64.1,14.8,96.9H264.5V137z M358.9,128.5
		c-31.2-5.3-62.8-8.2-94.4-8.6V17.5C313.5,22.2,356,67,380,132.2L358.9,128.5z M247.5,119.9c-31.6,0.4-63.2,3.3-94.4,8.6l-21.1,3.7
		c24.1-65.2,66.6-110,115.5-114.7V119.9z M156,145.4c30.2-5.2,60.8-8,91.5-8.4v110.5H111.1c0.6-32.8,5.5-65.4,14.8-96.9L156,145.4z
		 M111.1,264.5h136.4V375c-30.7-0.4-61.3-3.2-91.5-8.4l-30.1-5.2C116.6,329.9,111.6,297.4,111.1,264.5z M153.1,383.5
		c31.2,5.3,62.7,8.2,94.4,8.6v102.4c-48.9-4.7-91.4-49.5-115.5-114.7L153.1,383.5z M264.5,392.1c31.6-0.4,63.2-3.3,94.4-8.6
		l21.1-3.7c-24.1,65.2-66.6,110-115.5,114.7V392.1z M356,366.6c-30.2,5.2-60.8,8-91.5,8.4V264.5h136.4c-0.6,32.8-5.6,65.4-14.8,96.9
		L356,366.6z M418,247.5c-0.6-31.7-5.1-63.1-13.4-93.7l72.8,12.6c10.5,25.8,16.4,53.3,17.3,81.1H418z M468.8,147.5l-69.8-12
		c-12.5-40.9-36-77.7-67.9-106.2C390.7,49.1,440.1,91.6,468.8,147.5z M180.9,29.2C149,57.8,125.6,94.5,113,135.5l-69.8,12
		C71.9,91.6,121.3,49.1,180.9,29.2z M43.2,364.5l69.8,12c12.5,40.9,36,77.7,67.9,106.2C121.3,462.9,71.9,420.4,43.2,364.5z
		 M331.1,482.8c31.9-28.6,55.3-65.3,67.9-106.2l69.8-12C440.1,420.4,390.7,462.9,331.1,482.8z"/>
</g>
</svg>
