<?xml version="1.0" encoding="utf-8"?>
<!-- Generator: Adobe Illustrator 23.1.0, SVG Export Plug-In . SVG Version: 6.00 Build 0)  -->
<svg version="1.1" id="Layer_1" xmlns="http://www.w3.org/2000/svg" xmlns:xlink="http://www.w3.org/1999/xlink" x="0px" y="0px"
	 viewBox="0 0 360.2 78.2" style="enable-background:new 0 0 360.2 78.2;" xml:space="preserve">
<style type="text/css">
	.st0{display:none;fill:#FFFFFF;}
	.st1{display:none;}
	.st2{display:inline;}
	.st3{opacity:0.8;fill:#FFFFFF;}
</style>
<rect x="-62.4" y="-60.8" class="st0" width="485.5" height="242"/>
<g class="st1">
	<g class="st2">
		<path class="st3" d="M131.9,132.9h-1.5v-7h1.5V132.9z"/>
		<g>
			<polygon points="47,132.9 43.4,132.9 43.8,131.5 46.5,131.5 			"/>
			<path class="st3" d="M44.4,125.9H46l2.5,7H47l-0.5-1.4h-2.6l-0.5,1.4h-1.6L44.4,125.9z M44.3,130.3h1.8l-0.9-2.8L44.3,130.3z"/>
			<path d="M44.3,130.3h1.8l-0.9-2.8L44.3,130.3z"/>
			<polygon points="47,132.9 43.4,132.9 43.8,131.5 46.5,131.5 			"/>
		</g>
		<g>
			<path class="st3" d="M58.8,126.6c0.2,0.3,0.3,0.7,0.3,1.1c0,0.4-0.1,0.8-0.3,1c-0.1,0.1-0.3,0.3-0.5,0.4c0.4,0.1,0.6,0.3,0.8,0.6
				c0.2,0.3,0.3,0.6,0.3,1c0,0.4-0.1,0.8-0.3,1.1c-0.1,0.2-0.3,0.4-0.5,0.6c-0.2,0.2-0.5,0.3-0.8,0.4c-0.3,0.1-0.6,0.1-1,0.1h-3.2
				v-7H57C57.8,125.9,58.5,126.2,58.8,126.6z M54.9,127.1v1.5h1.7c0.3,0,0.6-0.1,0.8-0.2c0.2-0.1,0.3-0.3,0.3-0.6
				c0-0.3-0.1-0.5-0.4-0.6c-0.2-0.1-0.5-0.1-0.8-0.1H54.9z M54.9,129.8v1.9h1.7c0.3,0,0.6,0,0.7-0.1c0.3-0.2,0.5-0.4,0.5-0.9
				c0-0.4-0.2-0.6-0.5-0.7c-0.2-0.1-0.4-0.1-0.7-0.1H54.9z"/>
			<path d="M54.9,127.1v1.5h1.7c0.3,0,0.6-0.1,0.8-0.2c0.2-0.1,0.3-0.3,0.3-0.6c0-0.3-0.1-0.5-0.4-0.6c-0.2-0.1-0.5-0.1-0.8-0.1
				H54.9z M54.9,129.8v1.9h1.7c0.3,0,0.6,0,0.7-0.1c0.3-0.2,0.5-0.4,0.5-0.9c0-0.4-0.2-0.6-0.5-0.7c-0.2-0.1-0.4-0.1-0.7-0.1H54.9z"
				/>
		</g>
		<g>
			<path class="st3" d="M65.3,126.6c0.6-0.6,1.3-0.9,2.2-0.9c1.2,0,2.1,0.4,2.6,1.2c0.3,0.4,0.5,0.9,0.5,1.3h-1.5
				c-0.1-0.3-0.2-0.6-0.4-0.8c-0.3-0.3-0.7-0.5-1.2-0.5c-0.5,0-1,0.2-1.3,0.6c-0.3,0.4-0.5,1-0.5,1.8c0,0.8,0.2,1.4,0.5,1.8
				c0.3,0.4,0.7,0.6,1.2,0.6c0.5,0,0.9-0.2,1.2-0.5c0.1-0.2,0.3-0.5,0.4-0.8h1.5c-0.1,0.8-0.5,1.4-1,1.9c-0.5,0.5-1.2,0.7-2,0.7
				c-1,0-1.8-0.3-2.4-1c-0.6-0.6-0.9-1.5-0.9-2.7C64.3,128.2,64.7,127.3,65.3,126.6z"/>
			<path d="M70.6,130.5h-1.5c-0.1,0.4-0.2,0.6-0.4,0.8c-0.3,0.3-0.7,0.5-1.2,0.5c-0.5,0-0.9-0.2-1.2-0.6c-0.3-0.4-0.5-1-0.5-1.8
				c0-0.8,0.2-1.4,0.5-1.8c0.3-0.4,0.7-0.6,1.3-0.6c0.5,0,0.9,0.2,1.2,0.5c0.1,0.2,0.3,0.4,0.4,0.8h1.5
				C70.6,128.2,70.7,129.6,70.6,130.5z"/>
		</g>
		<g>
			<path d="M77.3,127.1v4.6h1.4c0.7,0,1.2-0.3,1.5-1c0.2-0.4,0.2-0.8,0.2-1.3c0-0.7-0.1-1.3-0.3-1.6c-0.2-0.4-0.7-0.6-1.4-0.6H77.3z
				"/>
			<path class="st3" d="M80,126.1c0.5,0.2,0.9,0.5,1.2,0.9c0.2,0.3,0.4,0.7,0.5,1.1c0.1,0.4,0.1,0.8,0.1,1.2c0,0.9-0.2,1.7-0.6,2.4
				c-0.5,0.9-1.3,1.3-2.4,1.3h-3.1v-7h3.1C79.4,125.9,79.7,126,80,126.1z M77.3,127.1v4.6h1.4c0.7,0,1.2-0.3,1.5-1
				c0.2-0.4,0.2-0.8,0.2-1.3c0-0.7-0.1-1.3-0.3-1.6c-0.2-0.4-0.7-0.6-1.4-0.6H77.3z"/>
		</g>
		<g>
			<path class="st3" d="M92.5,127.1h-4v1.5H92v1.2h-3.5v1.8h4v1.3H87v-7h5.4V127.1z"/>
			<polyline points="92.5,131.6 88.5,131.6 88.5,129.8 92,129.8 92,128.6 88.5,128.6 88.5,127.1 92.5,127.1 			"/>
		</g>
		<g>
			<polygon points="102.7,127.1 102.7,132.9 99.1,132.9 99.1,130 102.3,130 102.3,128.7 99.1,128.7 99.1,127.1 			"/>
			<path class="st3" d="M97.6,125.9h5.1v1.2h-3.6v1.6h3.2v1.2h-3.2v2.9h-1.5V125.9z"/>
		</g>
		<g>
			<path d="M112.8,132l0.2,0.9h-1.3c0.1,0,0.3-0.1,0.4-0.2C112.3,132.6,112.6,132.4,112.8,132z"/>
			<path d="M112.1,131.4c-0.3,0.3-0.7,0.4-1.2,0.4c-0.5,0-1-0.2-1.4-0.5c-0.4-0.4-0.6-1-0.6-1.8c0-0.9,0.2-1.5,0.6-1.9
				c0.4-0.4,0.8-0.6,1.4-0.6c0.3,0,0.6,0.1,0.8,0.2c0.4,0.2,0.7,0.5,0.8,1h1.5l0,1.1h-3v1.2h1.7
				C112.6,130.8,112.4,131.1,112.1,131.4z"/>
			<path class="st3" d="M112.5,128.1c-0.1-0.5-0.4-0.8-0.8-1c-0.2-0.1-0.5-0.2-0.8-0.2c-0.6,0-1.1,0.2-1.4,0.6
				c-0.4,0.4-0.6,1.1-0.6,1.9c0,0.9,0.2,1.5,0.6,1.8c0.4,0.4,0.9,0.5,1.4,0.5c0.5,0,0.9-0.1,1.2-0.4c0.3-0.3,0.5-0.7,0.6-1.1H111
				v-1.2h3v3.8h-1l-0.2-0.9c-0.3,0.3-0.5,0.6-0.8,0.7c-0.4,0.2-0.9,0.4-1.5,0.4c-0.9,0-1.7-0.3-2.3-1c-0.6-0.6-0.9-1.5-0.9-2.6
				c0-1.1,0.3-2,1-2.7c0.6-0.7,1.5-1,2.5-1c0.9,0,1.6,0.2,2.2,0.7c0.6,0.5,0.9,1,1,1.7H112.5z"/>
		</g>
		<g>
			<rect x="120.9" y="125.9" width="2.8" height="2.7"/>
			<rect x="120.9" y="129.8" width="2.8" height="3.1"/>
			<path class="st3" d="M119.4,132.9v-7h1.5v2.7h2.8v-2.7h1.5v7h-1.5v-3.1h-2.8v3.1H119.4z"/>
		</g>
		<g>
			<path d="M139.8,125.9v4.9c0,0.3,0,0.6-0.1,0.7c-0.1,0.2-0.3,0.4-0.7,0.4c-0.3,0-0.6-0.1-0.7-0.3c-0.1-0.2-0.2-0.6-0.2-1.1v-0.2
				h-1.4v-4.3H139.8z"/>
			<path class="st3" d="M138.2,130.2v0.2c0,0.5,0.1,0.9,0.2,1.1c0.1,0.2,0.3,0.3,0.7,0.3c0.3,0,0.6-0.1,0.7-0.4
				c0.1-0.1,0.1-0.4,0.1-0.7v-4.9h1.5v4.9c0,0.6-0.1,1.1-0.3,1.4c-0.3,0.6-1,0.9-1.9,0.9c-0.9,0-1.5-0.2-1.8-0.7
				c-0.3-0.5-0.5-1.1-0.5-1.9v-0.2H138.2z"/>
		</g>
		<g>
			<path class="st3" d="M146.9,125.9h1.5v2.9l2.9-2.9h1.9l-3.1,2.9l3.1,4.1h-1.9l-2.2-3.1l-0.7,0.7v2.3h-1.5V125.9z"/>
			<polygon points="151.2,125.9 148.3,128.8 148.3,125.9 148.4,125.9 			"/>
			<polygon points="149.1,129.8 151.3,132.9 148.4,132.9 148.3,132.8 148.3,130.6 			"/>
			<polygon points="153.2,125.9 153.2,132.9 153.2,132.9 150.1,128.8 153.2,125.9 			"/>
		</g>
		<g>
			<path class="st3" d="M158,125.9h1.5v5.7h3.6v1.3H158V125.9z"/>
			<rect x="158.4" y="127" transform="matrix(1.359476e-03 -1 1 1.359476e-03 32.3102 289.896)" width="5.7" height="3.6"/>
		</g>
		<g>
			<path class="st3" d="M172.9,125.9h2.2v7h-1.4v-4.7c0-0.1,0-0.3,0-0.6c0-0.2,0-0.4,0-0.6l-1.4,5.9h-1.5l-1.3-5.9
				c0,0.1,0,0.3,0,0.6c0,0.2,0,0.4,0,0.6v4.7h-1.4v-7h2.2l1.3,5.5L172.9,125.9z"/>
			<path d="M169.5,127l1.3,5.9h-1.3v-4.7c0-0.1,0-0.3,0-0.6C169.5,127.3,169.5,127.2,169.5,127z"/>
			<polygon points="172.9,125.9 171.6,131.4 170.3,125.9 			"/>
			<path d="M173.6,127c0,0.1,0,0.3,0,0.6c0,0.2,0,0.4,0,0.6v4.7h-1.3L173.6,127z"/>
		</g>
		<g>
			<path class="st3" d="M180.3,125.9h1.6l2.8,4.9v-4.9h1.4v7h-1.5l-2.9-5v5h-1.4V125.9z"/>
			<polygon points="181.7,127.9 184.6,132.9 181.7,132.9 			"/>
			<polygon points="184.7,125.9 184.7,130.8 181.9,125.9 			"/>
		</g>
		<g>
			<path d="M196.1,131.2c0.3-0.4,0.5-1,0.5-1.8c0-0.8-0.2-1.4-0.5-1.8c-0.3-0.4-0.8-0.6-1.4-0.6s-1.1,0.2-1.4,0.6
				c-0.4,0.4-0.5,1-0.5,1.8c0,0.8,0.2,1.4,0.5,1.8c0.4,0.4,0.8,0.6,1.4,0.6S195.8,131.6,196.1,131.2z"/>
			<path class="st3" d="M197,132.3c-0.5,0.5-1.3,0.8-2.3,0.8c-1,0-1.8-0.3-2.3-0.8c-0.7-0.7-1.1-1.6-1.1-2.9c0-1.3,0.4-2.2,1.1-2.9
				c0.5-0.5,1.3-0.8,2.3-0.8c1,0,1.8,0.3,2.3,0.8c0.7,0.6,1.1,1.6,1.1,2.9C198.1,130.6,197.8,131.6,197,132.3z M196.1,131.2
				c0.3-0.4,0.5-1,0.5-1.8c0-0.8-0.2-1.4-0.5-1.8c-0.3-0.4-0.8-0.6-1.4-0.6s-1.1,0.2-1.4,0.6c-0.4,0.4-0.5,1-0.5,1.8
				c0,0.8,0.2,1.4,0.5,1.8c0.4,0.4,0.8,0.6,1.4,0.6S195.8,131.6,196.1,131.2z"/>
		</g>
		<g>
			<path d="M206.1,129.2h-1.3v-2.1h1.3c0.3,0,0.6,0.1,0.8,0.2c0.2,0.2,0.3,0.4,0.3,0.8c0,0.4-0.1,0.6-0.3,0.8
				C206.7,129.1,206.5,129.2,206.1,129.2z"/>
			<path d="M208.7,125.9v2.2c0-0.8-0.2-1.3-0.6-1.7c-0.4-0.4-1-0.5-1.7-0.5H208.7z"/>
			<path d="M208.7,128.1v4.8h-3.9v-2.5h1.5c0.8,0,1.4-0.2,1.8-0.5C208.5,129.5,208.7,128.9,208.7,128.1z"/>
			<path class="st3" d="M208.1,129.9c-0.4,0.3-1,0.5-1.8,0.5h-1.5v2.5h-1.5v-7h3.1c0.7,0,1.3,0.2,1.7,0.5c0.4,0.4,0.6,0.9,0.6,1.7
				C208.7,128.9,208.5,129.5,208.1,129.9z M206.9,127.3c-0.2-0.2-0.5-0.2-0.8-0.2h-1.3v2.1h1.3c0.3,0,0.6-0.1,0.8-0.3
				c0.2-0.2,0.3-0.4,0.3-0.8C207.2,127.8,207.1,127.5,206.9,127.3z"/>
		</g>
		<g>
			<path d="M217.5,131.8c0.1,0,0.2-0.1,0.3-0.1l-0.7-0.7l0.8-0.8l0.7,0.7c0.1-0.2,0.2-0.4,0.2-0.6c0.1-0.3,0.1-0.6,0.1-0.9
				c0-0.8-0.2-1.4-0.5-1.8c-0.3-0.4-0.8-0.6-1.4-0.6c-0.6,0-1.1,0.2-1.4,0.6c-0.4,0.4-0.5,1-0.5,1.8c0,1,0.3,1.6,0.8,2.1
				c0.3,0.3,0.7,0.4,1.2,0.4C217.2,131.9,217.4,131.8,217.5,131.8z"/>
			<path d="M220.5,129.2v3.4l-0.8-0.8c0.2-0.3,0.4-0.6,0.6-1C220.4,130.4,220.5,129.9,220.5,129.2
				C220.5,129.3,220.5,129.2,220.5,129.2L220.5,129.2z"/>
			<path class="st3" d="M220.2,130.9c-0.1,0.4-0.3,0.7-0.6,1l0.8,0.8l-0.8,0.8l-0.9-0.8c-0.3,0.2-0.5,0.3-0.7,0.3
				c-0.3,0.1-0.7,0.2-1.2,0.2c-0.9,0-1.7-0.3-2.3-0.8c-0.7-0.7-1.1-1.6-1.1-2.9c0-1.3,0.4-2.2,1.1-2.9c0.6-0.5,1.4-0.8,2.3-0.8
				c0.9,0,1.7,0.3,2.3,0.8c0.7,0.7,1.1,1.6,1.1,2.7C220.5,129.9,220.4,130.4,220.2,130.9z M217.5,131.8c0.1,0,0.2-0.1,0.3-0.1
				l-0.7-0.7l0.8-0.8l0.7,0.7c0.1-0.2,0.2-0.4,0.2-0.6c0.1-0.3,0.1-0.6,0.1-0.9c0-0.8-0.2-1.4-0.5-1.8c-0.3-0.4-0.8-0.6-1.4-0.6
				c-0.6,0-1.1,0.2-1.4,0.6c-0.4,0.4-0.5,1-0.5,1.8c0,1,0.3,1.6,0.8,2.1c0.3,0.3,0.7,0.4,1.2,0.4
				C217.2,131.9,217.4,131.8,217.5,131.8z"/>
		</g>
		<g>
			<path d="M229.9,128.1c0,0.4-0.1,0.7-0.4,0.8c-0.2,0.1-0.4,0.1-0.7,0.1h-1.6v-1.9h1.7c0.3,0,0.5,0,0.7,0.1
				C229.7,127.4,229.9,127.7,229.9,128.1z"/>
			<path d="M229.6,132.5c0,0.1,0.1,0.2,0.1,0.4h-2.6v-2.7h1.4c0.4,0,0.7,0.1,0.9,0.2c0.2,0.1,0.2,0.4,0.2,0.9l0,0.6
				C229.6,132.1,229.6,132.3,229.6,132.5z"/>
			<path d="M231.4,125.9v6.8c-0.1-0.1-0.2-0.2-0.3-0.4c0-0.1,0-0.3,0-0.6v-0.5c0-0.5-0.1-0.9-0.2-1.1c-0.1-0.2-0.4-0.4-0.7-0.6
				c0.4-0.1,0.8-0.4,1-0.7c0.2-0.3,0.3-0.6,0.3-1c0-0.3,0-0.5-0.1-0.7c-0.1-0.2-0.2-0.4-0.4-0.6c-0.2-0.2-0.4-0.4-0.7-0.5
				c-0.3-0.1-0.6-0.2-1.1-0.2H231.4z"/>
			<path class="st3" d="M230.2,126.1c0.3,0.1,0.5,0.3,0.7,0.5c0.2,0.2,0.3,0.4,0.4,0.6c0.1,0.2,0.1,0.5,0.1,0.7c0,0.3-0.1,0.7-0.3,1
				c-0.2,0.3-0.6,0.5-1,0.7c0.3,0.1,0.6,0.3,0.7,0.6c0.1,0.2,0.2,0.6,0.2,1.1v0.5c0,0.3,0,0.5,0,0.7c0,0.2,0.1,0.3,0.3,0.4v0.2h-1.7
				c0-0.2-0.1-0.3-0.1-0.4c0-0.2-0.1-0.4-0.1-0.6l0-0.7c0-0.4-0.1-0.7-0.2-0.9c-0.2-0.1-0.4-0.2-0.9-0.2h-1.4v2.7h-1.5v-7h3.4
				C229.6,125.9,229.9,126,230.2,126.1z M227.1,127.1v1.9h1.6c0.3,0,0.6,0,0.7-0.1c0.3-0.1,0.4-0.4,0.4-0.8c0-0.4-0.1-0.7-0.4-0.9
				c-0.2-0.1-0.4-0.1-0.7-0.1H227.1z"/>
		</g>
		<g>
			<path d="M240.9,131c0,0.4-0.2,0.7-0.6,0.8c-0.2,0.1-0.5,0.1-0.9,0.1c-0.6,0-1-0.1-1.3-0.4c-0.1-0.2-0.2-0.4-0.3-0.7h-1.4v-2.9
				c0,0.7,0.2,1.2,0.7,1.5c0.3,0.2,0.9,0.4,1.7,0.5l0.8,0.2c0.5,0.1,0.8,0.2,1,0.3C240.8,130.6,240.9,130.7,240.9,131z"/>
			<path d="M242.4,128v2.9c0-0.6-0.2-1.1-0.6-1.4c-0.3-0.2-0.7-0.4-1.2-0.5l-1.3-0.3c-0.5-0.1-0.8-0.2-1-0.3
				c-0.2-0.1-0.4-0.3-0.4-0.6c0-0.3,0.1-0.5,0.4-0.6c0.2-0.2,0.7-0.2,1.1-0.2c0.4,0,0.8,0.1,1,0.2c0.4,0.2,0.6,0.5,0.6,0.9H242.4
				L242.4,128L242.4,128z"/>
			<path class="st3" d="M237.8,130.7c0,0.3,0.1,0.6,0.3,0.7c0.2,0.3,0.7,0.4,1.3,0.4c0.4,0,0.7,0,0.9-0.1c0.4-0.1,0.6-0.4,0.6-0.8
				c0-0.2-0.1-0.4-0.3-0.5c-0.2-0.1-0.5-0.2-1-0.3l-0.8-0.2c-0.8-0.2-1.4-0.3-1.7-0.5c-0.5-0.3-0.7-0.8-0.7-1.5
				c0-0.6,0.2-1.1,0.7-1.6c0.5-0.4,1.3-0.6,2.3-0.6c0.8,0,1.5,0.2,2.1,0.6c0.5,0.4,0.8,1,0.8,1.7h-1.4c0-0.4-0.2-0.7-0.6-0.9
				c-0.2-0.1-0.6-0.2-1-0.2c-0.4,0-0.9,0.1-1.1,0.2c-0.2,0.2-0.4,0.4-0.4,0.6c0,0.2,0.1,0.4,0.3,0.6c0.1,0.1,0.5,0.2,1,0.3l1.3,0.3
				c0.6,0.1,1,0.3,1.2,0.5c0.4,0.3,0.6,0.8,0.6,1.4c0,0.6-0.3,1.2-0.8,1.6c-0.5,0.4-1.2,0.6-2.1,0.6c-0.9,0-1.7-0.2-2.2-0.6
				c-0.5-0.4-0.8-1-0.8-1.7H237.8z"/>
		</g>
		<g>
			<path class="st3" d="M252.6,125.9v1.2h-2.1v5.8h-1.5v-5.8h-2.2v-1.2H252.6z"/>
			<rect x="246.8" y="127.1" width="2.2" height="5.8"/>
			<rect x="250.5" y="127.1" width="2.1" height="5.8"/>
		</g>
		<g>
			<path d="M261.7,125.9v4.3c0,0.5-0.1,0.8-0.2,1.1c-0.2,0.4-0.6,0.6-1.2,0.6c-0.6,0-1-0.2-1.2-0.6c-0.1-0.2-0.2-0.6-0.2-1.1v-4.3
				H261.7z"/>
			<path class="st3" d="M257.5,125.9h1.5v4.3c0,0.5,0.1,0.8,0.2,1.1c0.2,0.4,0.6,0.6,1.2,0.6c0.6,0,1-0.2,1.2-0.6
				c0.1-0.2,0.2-0.6,0.2-1.1v-4.3h1.5v4.3c0,0.7-0.1,1.3-0.4,1.7c-0.4,0.8-1.3,1.1-2.5,1.1c-1.2,0-2.1-0.4-2.5-1.1
				c-0.2-0.4-0.4-1-0.4-1.7V125.9z"/>
		</g>
		<g>
			<path class="st3" d="M272.8,125.9l-1.6,5.3l-1.6-5.3h-1.6l1.1,3.3l1.1,3.1l0.2,0.7h1.4l0.2-0.7l1.2-3.5l1-2.8H272.8z"/>
			<polygon points="272.8,125.9 271.2,131.2 269.7,125.9 			"/>
		</g>
		<g>
			<path class="st3" d="M280.2,125.9l0.9,4l0.2,1.1l0.2-1.1l0.8-4h1.6l0.9,4l0.2,1.1l0.2-1.1l1-4h1.5l-2,7h-1.4l-0.9-4.1l-0.3-1.4
				l-0.3,1.4l-0.9,4.1h-1.4l-2-7H280.2z"/>
			<polygon points="282.4,125.9 281.6,129.9 281.4,131 281.2,129.9 280.2,125.9 			"/>
			<polygon points="283.4,128.8 284.3,132.9 282.1,132.9 282.9,128.8 283.2,127.5 			"/>
			<polygon points="286.2,125.9 285.3,130 285,131 284.8,129.9 284,125.9 			"/>
		</g>
		<g>
			<path class="st3" d="M293.8,132.9H292l2.3-3.6l-2.3-3.4h1.8l1.4,2.3l1.5-2.3h1.7l-2.3,3.4l2.3,3.6h-1.8l-1.4-2.4L293.8,132.9z"/>
			<polygon points="294.3,129.3 292,132.9 292,125.9 292,125.9 			"/>
			<polygon points="295.2,130.5 296.6,132.9 293.8,132.9 			"/>
			<polygon points="295.2,128.2 293.8,125.9 296.7,125.9 			"/>
			<polygon points="298.4,125.9 298.4,132.9 298.4,132.9 296.1,129.3 			"/>
		</g>
		<g>
			<path class="st3" d="M307.3,125.9h1.7l-2.4,4.4v2.6h-1.5v-2.6l-2.5-4.4h1.8l1.5,3L307.3,125.9z"/>
			<polygon points="307.3,125.9 305.9,129 304.4,125.9 			"/>
		</g>
		<g>
			<path class="st3" d="M313.4,131.7l3.7-4.5h-3.7v-1.2h5.5v1.2l-3.7,4.6h3.7v1.2h-5.5V131.7z"/>
			<polygon points="317,127.1 313.4,131.7 313.4,127.1 			"/>
			<polygon points="318.9,127.1 318.9,131.7 315.2,131.7 			"/>
		</g>
	</g>
	<g class="st2">
		<path d="M58.8,114.9c0.2,0.3,0.3,0.7,0.3,1.1c0,0.4-0.1,0.8-0.3,1c-0.1,0.1-0.3,0.3-0.5,0.4c0.4,0.1,0.6,0.3,0.8,0.6
			c0.2,0.3,0.3,0.6,0.3,1c0,0.4-0.1,0.8-0.3,1.1c-0.1,0.2-0.3,0.4-0.5,0.6c-0.2,0.2-0.5,0.3-0.8,0.4c-0.3,0.1-0.6,0.1-1,0.1h-3.2v-7
			H57C57.8,114.1,58.5,114.4,58.8,114.9z M54.9,115.3v1.5h1.7c0.3,0,0.6-0.1,0.8-0.2c0.2-0.1,0.3-0.3,0.3-0.6c0-0.3-0.1-0.5-0.4-0.6
			c-0.2-0.1-0.5-0.1-0.8-0.1H54.9z M54.9,118v1.9h1.7c0.3,0,0.6,0,0.7-0.1c0.3-0.2,0.5-0.4,0.5-0.9c0-0.4-0.2-0.6-0.5-0.7
			c-0.2-0.1-0.4-0.1-0.7-0.1H54.9z"/>
		<path d="M65.3,114.8c0.6-0.6,1.3-0.9,2.2-0.9c1.2,0,2.1,0.4,2.6,1.2c0.3,0.4,0.5,0.9,0.5,1.3h-1.5c-0.1-0.3-0.2-0.6-0.4-0.8
			c-0.3-0.3-0.7-0.5-1.2-0.5c-0.5,0-1,0.2-1.3,0.6c-0.3,0.4-0.5,1-0.5,1.8c0,0.8,0.2,1.4,0.5,1.8c0.3,0.4,0.7,0.6,1.2,0.6
			c0.5,0,0.9-0.2,1.2-0.5c0.1-0.2,0.3-0.5,0.4-0.8h1.5c-0.1,0.8-0.5,1.4-1,1.9c-0.5,0.5-1.2,0.7-2,0.7c-1,0-1.8-0.3-2.4-1
			c-0.6-0.6-0.9-1.5-0.9-2.7C64.3,116.4,64.7,115.5,65.3,114.8z"/>
		<path d="M92.5,115.4h-4v1.5H92v1.2h-3.5v1.8h4v1.3H87v-7h5.4V115.4z"/>
		<path d="M131.9,121.1h-1.5v-7h1.5V121.1z"/>
		<path d="M146.9,114.1h1.5v2.9l2.9-2.9h1.9l-3.1,2.9l3.1,4.1h-1.9l-2.2-3.1l-0.7,0.7v2.3h-1.5V114.1z"/>
		<path d="M158,114.1h1.5v5.7h3.6v1.3H158V114.1z"/>
		<path d="M172.9,114.1h2.2v7h-1.4v-4.7c0-0.1,0-0.3,0-0.6c0-0.2,0-0.4,0-0.6l-1.4,5.9h-1.5l-1.3-5.9c0,0.1,0,0.3,0,0.6
			c0,0.2,0,0.4,0,0.6v4.7h-1.4v-7h2.2l1.3,5.5L172.9,114.1z"/>
		<path d="M180.3,114.1h1.6l2.8,4.9v-4.9h1.4v7h-1.5l-2.9-5v5h-1.4V114.1z"/>
		<path d="M252.6,114.1v1.2h-2.1v5.8h-1.5v-5.8h-2.2v-1.2H252.6z"/>
		<path d="M272.8,114.1l-1.6,5.3l-1.6-5.3h-1.6l1.1,3.3l1.1,3.1l0.2,0.7h1.4l0.2-0.7l1.2-3.5l1-2.8H272.8z"/>
		<path d="M280.2,114.1l0.9,4l0.2,1.1l0.2-1.1l0.8-4h1.6l0.9,4l0.2,1.1l0.2-1.1l1-4h1.5l-2,7h-1.4l-0.9-4.1l-0.3-1.4l-0.3,1.4
			l-0.9,4.1h-1.4l-2-7H280.2z"/>
		<path d="M293.8,121.1H292l2.3-3.6l-2.3-3.4h1.8l1.4,2.3l1.5-2.3h1.7l-2.3,3.4l2.3,3.6h-1.8l-1.4-2.4L293.8,121.1z"/>
		<path d="M307.3,114.1h1.7l-2.4,4.4v2.6h-1.5v-2.6l-2.5-4.4h1.8l1.5,3L307.3,114.1z"/>
		<path d="M313.4,119.9l3.7-4.5h-3.7v-1.2h5.5v1.2l-3.7,4.6h3.7v1.2h-5.5V119.9z"/>
		<path d="M44.4,114.1H46l2.5,7H47l-0.5-1.4h-2.6l-0.5,1.4h-1.6L44.4,114.1z M44.3,118.5h1.8l-0.9-2.8L44.3,118.5z"/>
		<path d="M80,114.3c0.5,0.2,0.9,0.5,1.2,0.9c0.2,0.3,0.4,0.7,0.5,1.1c0.1,0.4,0.1,0.8,0.1,1.2c0,0.9-0.2,1.7-0.6,2.4
			c-0.5,0.9-1.3,1.3-2.4,1.3h-3.1v-7h3.1C79.4,114.1,79.7,114.2,80,114.3z M77.3,115.3v4.6h1.4c0.7,0,1.2-0.3,1.5-1
			c0.2-0.4,0.2-0.8,0.2-1.3c0-0.7-0.1-1.3-0.3-1.6c-0.2-0.4-0.7-0.6-1.4-0.6H77.3z"/>
		<path d="M97.6,114.1h5.1v1.2h-3.6v1.6h3.2v1.2h-3.2v2.9h-1.5V114.1z"/>
		<path d="M112.5,116.3c-0.1-0.5-0.4-0.8-0.8-1c-0.2-0.1-0.5-0.2-0.8-0.2c-0.6,0-1.1,0.2-1.4,0.6c-0.4,0.4-0.6,1.1-0.6,1.9
			c0,0.9,0.2,1.5,0.6,1.8c0.4,0.4,0.9,0.5,1.4,0.5c0.5,0,0.9-0.1,1.2-0.4c0.3-0.3,0.5-0.7,0.6-1.1H111v-1.2h3v3.8h-1l-0.2-0.9
			c-0.3,0.3-0.5,0.6-0.8,0.7c-0.4,0.2-0.9,0.4-1.5,0.4c-0.9,0-1.7-0.3-2.3-1c-0.6-0.6-0.9-1.5-0.9-2.6c0-1.1,0.3-2,1-2.7
			c0.6-0.7,1.5-1,2.5-1c0.9,0,1.6,0.2,2.2,0.7c0.6,0.5,0.9,1,1,1.7H112.5z"/>
		<path d="M119.4,121.1v-7h1.5v2.7h2.8v-2.7h1.5v7h-1.5V118h-2.8v3.1H119.4z"/>
		<path d="M138.2,118.5v0.2c0,0.5,0.1,0.9,0.2,1.1c0.1,0.2,0.3,0.3,0.7,0.3c0.3,0,0.6-0.1,0.7-0.4c0.1-0.1,0.1-0.4,0.1-0.7v-4.9h1.5
			v4.9c0,0.6-0.1,1.1-0.3,1.4c-0.3,0.6-1,0.9-1.9,0.9c-0.9,0-1.5-0.2-1.8-0.7c-0.3-0.5-0.5-1.1-0.5-1.9v-0.2H138.2z"/>
		<path d="M197,120.5c-0.5,0.5-1.3,0.8-2.3,0.8c-1,0-1.8-0.3-2.3-0.8c-0.7-0.7-1.1-1.6-1.1-2.9c0-1.3,0.4-2.2,1.1-2.9
			c0.5-0.5,1.3-0.8,2.3-0.8c1,0,1.8,0.3,2.3,0.8c0.7,0.6,1.1,1.6,1.1,2.9C198.1,118.9,197.8,119.8,197,120.5z M196.1,119.4
			c0.3-0.4,0.5-1,0.5-1.8c0-0.8-0.2-1.4-0.5-1.8c-0.3-0.4-0.8-0.6-1.4-0.6s-1.1,0.2-1.4,0.6c-0.4,0.4-0.5,1-0.5,1.8
			c0,0.8,0.2,1.4,0.5,1.8c0.4,0.4,0.8,0.6,1.4,0.6S195.8,119.9,196.1,119.4z"/>
		<path d="M208.1,118.1c-0.4,0.3-1,0.5-1.8,0.5h-1.5v2.5h-1.5v-7h3.1c0.7,0,1.3,0.2,1.7,0.5c0.4,0.4,0.6,0.9,0.6,1.7
			C208.7,117.2,208.5,117.7,208.1,118.1z M206.9,115.6c-0.2-0.2-0.5-0.2-0.8-0.2h-1.3v2.1h1.3c0.3,0,0.6-0.1,0.8-0.3
			c0.2-0.2,0.3-0.4,0.3-0.8C207.2,116,207.1,115.7,206.9,115.6z"/>
		<path d="M220.2,119.1c-0.1,0.4-0.3,0.7-0.6,1l0.8,0.8l-0.8,0.8l-0.9-0.8c-0.3,0.2-0.5,0.3-0.7,0.3c-0.3,0.1-0.7,0.2-1.2,0.2
			c-0.9,0-1.7-0.3-2.3-0.8c-0.7-0.7-1.1-1.6-1.1-2.9c0-1.3,0.4-2.2,1.1-2.9c0.6-0.5,1.4-0.8,2.3-0.8c0.9,0,1.7,0.3,2.3,0.8
			c0.7,0.7,1.1,1.6,1.1,2.7C220.5,118.1,220.4,118.6,220.2,119.1z M217.5,120c0.1,0,0.2-0.1,0.3-0.1l-0.7-0.7l0.8-0.8l0.7,0.7
			c0.1-0.2,0.2-0.4,0.2-0.6c0.1-0.3,0.1-0.6,0.1-0.9c0-0.8-0.2-1.4-0.5-1.8c-0.3-0.4-0.8-0.6-1.4-0.6c-0.6,0-1.1,0.2-1.4,0.6
			c-0.4,0.4-0.5,1-0.5,1.8c0,1,0.3,1.6,0.8,2.1c0.3,0.3,0.7,0.4,1.2,0.4C217.2,120.1,217.4,120,217.5,120z"/>
		<path d="M230.2,114.3c0.3,0.1,0.5,0.3,0.7,0.5c0.2,0.2,0.3,0.4,0.4,0.6c0.1,0.2,0.1,0.5,0.1,0.7c0,0.3-0.1,0.7-0.3,1
			c-0.2,0.3-0.6,0.5-1,0.7c0.3,0.1,0.6,0.3,0.7,0.6c0.1,0.2,0.2,0.6,0.2,1.1v0.5c0,0.3,0,0.5,0,0.7c0,0.2,0.1,0.3,0.3,0.4v0.2h-1.7
			c0-0.2-0.1-0.3-0.1-0.4c0-0.2-0.1-0.4-0.1-0.6l0-0.7c0-0.4-0.1-0.7-0.2-0.9c-0.2-0.1-0.4-0.2-0.9-0.2h-1.4v2.7h-1.5v-7h3.4
			C229.6,114.1,229.9,114.2,230.2,114.3z M227.1,115.3v1.9h1.6c0.3,0,0.6,0,0.7-0.1c0.3-0.1,0.4-0.4,0.4-0.8c0-0.4-0.1-0.7-0.4-0.9
			c-0.2-0.1-0.4-0.1-0.7-0.1H227.1z"/>
		<path d="M237.8,119c0,0.3,0.1,0.6,0.3,0.7c0.2,0.3,0.7,0.4,1.3,0.4c0.4,0,0.7,0,0.9-0.1c0.4-0.1,0.6-0.4,0.6-0.8
			c0-0.2-0.1-0.4-0.3-0.5c-0.2-0.1-0.5-0.2-1-0.3l-0.8-0.2c-0.8-0.2-1.4-0.3-1.7-0.5c-0.5-0.3-0.7-0.8-0.7-1.5
			c0-0.6,0.2-1.1,0.7-1.6c0.5-0.4,1.3-0.6,2.3-0.6c0.8,0,1.5,0.2,2.1,0.6c0.5,0.4,0.8,1,0.8,1.7h-1.4c0-0.4-0.2-0.7-0.6-0.9
			c-0.2-0.1-0.6-0.2-1-0.2c-0.4,0-0.9,0.1-1.1,0.2c-0.2,0.2-0.4,0.4-0.4,0.6c0,0.2,0.1,0.4,0.3,0.6c0.1,0.1,0.5,0.2,1,0.3l1.3,0.3
			c0.6,0.1,1,0.3,1.2,0.5c0.4,0.3,0.6,0.8,0.6,1.4c0,0.6-0.3,1.2-0.8,1.6c-0.5,0.4-1.2,0.6-2.1,0.6c-0.9,0-1.7-0.2-2.2-0.6
			c-0.5-0.4-0.8-1-0.8-1.7H237.8z"/>
		<path d="M257.5,114.1h1.5v4.3c0,0.5,0.1,0.8,0.2,1.1c0.2,0.4,0.6,0.6,1.2,0.6c0.6,0,1-0.2,1.2-0.6c0.1-0.2,0.2-0.6,0.2-1.1v-4.3
			h1.5v4.3c0,0.7-0.1,1.3-0.4,1.7c-0.4,0.8-1.3,1.1-2.5,1.1c-1.2,0-2.1-0.4-2.5-1.1c-0.2-0.4-0.4-1-0.4-1.7V114.1z"/>
	</g>
</g>
<g>
	<path d="M162.4,17.5h-38.1v14.3h33.4v11.7h-33.4v17.3h38.1v12.1h-52.2V5.6h52.2V17.5z"/>
	<path d="M208.5,5.6h14.4v55.1h34.4v12.1h-48.8V5.6z"/>
	<path d="M61.6,66.8c-5.2,5.2-12.7,7.8-22.6,7.8c-9.8,0-17.4-2.6-22.6-7.8C9.5,60.4,6,51.2,6,39.1c0-12.3,3.5-21.6,10.5-27.7
		C21.7,6.1,29.2,3.5,39,3.5c9.8,0,17.4,2.6,22.6,7.8C68.5,17.5,72,26.8,72,39.1C72,51.2,68.5,60.4,61.6,66.8z M52.6,56.6
		c3.3-4.1,5-9.9,5-17.5c0-7.5-1.7-13.4-5-17.5c-3.3-4.1-7.9-6.2-13.6-6.2s-10.2,2.1-13.6,6.2c-3.4,4.1-5.1,9.9-5.1,17.5
		c0,7.6,1.7,13.4,5.1,17.5c3.4,4.1,7.9,6.2,13.6,6.2S49.2,60.7,52.6,56.6z"/>
	<path d="M348.7,43.7c-4,3.3-9.8,4.9-17.3,4.9h-14.3v24.2h-14.3V5.6h29.6c6.8,0,12.3,1.7,16.3,5.2c4.1,3.5,6.1,8.8,6.1,16.1
		C354.7,34.8,352.7,40.4,348.7,43.7z M337.7,19.5c-1.8-1.5-4.4-2.2-7.7-2.2h-13v19.8h13c3.3,0,5.8-0.8,7.7-2.4
		c1.8-1.6,2.7-4.2,2.7-7.7C340.4,23.5,339.5,21,337.7,19.5z"/>
	<g>
		<polygon points="294.7,72.8 260.1,72.8 264.8,59 290.2,59 		"/>
		<path class="st3" d="M269.7,5.6h16.3l24.4,67.2h-15.6L290.2,59h-25.4l-4.7,13.8h-15.1L269.7,5.6z M268.7,47.4h17.6L277.7,21
			L268.7,47.4z"/>
		<path d="M268.7,47.4h17.6L277.7,21L268.7,47.4z"/>
		<polygon points="294.7,72.8 260.1,72.8 264.8,59 290.2,59 		"/>
	</g>
	<g>
		<path d="M199.1,26.7c0,3.8-1.4,6.3-4.1,7.6c-1.5,0.7-3.8,1.1-6.9,1.1h-15.5V17.3h15.9c3,0,5.2,0.4,6.7,1.2
			C197.7,19.8,199.1,22.6,199.1,26.7z"/>
		<path d="M196.8,69.2c0.2,0.9,0.5,2.1,0.9,3.6h-25.1V46.5h13c4,0,6.7,0.7,8.2,2.2c1.5,1.4,2.2,4.3,2.3,8.6l0.1,6.2
			C196.2,65.4,196.4,67.4,196.8,69.2z"/>
		<path d="M213.6,5.6v65.5c-1.4-0.8-2.3-2.1-2.7-3.8c-0.3-1.1-0.4-3.2-0.4-6.2v-4.5c0-4.7-0.6-8.2-2-10.5c-1.3-2.3-3.6-4.1-6.7-5.3
			c3.8-1.3,7.6-3.4,9.2-6.5c1.6-3.1,2.5-6.2,2.5-9.4c0-2.7-0.4-5-1.3-7.1c-0.8-2.1-2-4-3.4-5.7c-1.8-2.1-3.9-3.6-6.5-4.7
			c-2.5-1.1-6.1-1.6-10.9-1.7H213.6z"/>
		<path class="st3" d="M202.3,7.3c2.5,1.1,4.7,2.6,6.4,4.7c1.5,1.7,2.6,3.6,3.5,5.7c0.8,2.1,1.3,4.4,1.3,7.1c0,3.2-0.8,6.3-2.5,9.4
			c-1.7,3.1-5.4,5.3-9.2,6.5c3.2,1.2,5.4,3,6.7,5.3c1.3,2.3,2,5.8,2,10.5v4.5c0,3.1,0.1,5.2,0.4,6.3c0.4,1.7,1.3,3,2.7,3.8v1.7
			h-15.9c-0.4-1.5-0.7-2.7-0.9-3.6c-0.4-1.9-0.6-3.8-0.6-5.8l-0.1-6.2c-0.1-4.3-0.8-7.1-2.3-8.6c-1.5-1.4-4.2-2.1-8.2-2.1h-13v26.4
			h-14.1V5.6h32.9C196.2,5.7,199.8,6.3,202.3,7.3z M172.6,17.3v18.1h15.5c3.1,0,5.4-0.4,6.9-1.1c2.7-1.3,4.1-3.8,4.1-7.6
			c0-4.1-1.3-6.8-3.9-8.2c-1.5-0.8-3.7-1.2-6.7-1.2H172.6z"/>
	</g>
	<g>
		<path class="st3" d="M102.6,5.6l-15.1,51l-14.9-51H57.2L68.1,37l10.2,29.5l2.2,6.3h13.6l2.2-6.3l11.8-34l9.4-27H102.6z"/>
		<polygon points="102.6,5.6 87.5,56.6 72.6,5.6 		"/>
	</g>
</g>
</svg>
